<?xml version="1.0" encoding="utf-8" standalone="no"?>
<!DOCTYPE svg PUBLIC "-//W3C//DTD SVG 1.1//EN"
  "http://www.w3.org/Graphics/SVG/1.1/DTD/svg11.dtd">
<svg xmlns:xlink="http://www.w3.org/1999/xlink" width="576pt" height="432pt" viewBox="0 0 576 432" xmlns="http://www.w3.org/2000/svg" version="1.1">
 <metadata>
  <rdf:RDF xmlns:dc="http://purl.org/dc/elements/1.1/" xmlns:cc="http://creativecommons.org/ns#" xmlns:rdf="http://www.w3.org/1999/02/22-rdf-syntax-ns#">
   <cc:Work>
    <dc:type rdf:resource="http://purl.org/dc/dcmitype/StillImage"/>
    <dc:date>2024-02-11T10:50:13.415884</dc:date>
    <dc:format>image/svg+xml</dc:format>
    <dc:creator>
     <cc:Agent>
      <dc:title>Matplotlib v3.8.2, https://matplotlib.org/</dc:title>
     </cc:Agent>
    </dc:creator>
   </cc:Work>
  </rdf:RDF>
 </metadata>
 <defs>
  <style type="text/css">*{stroke-linejoin: round; stroke-linecap: butt}</style>
 </defs>
 <g id="figure_1">
  <g id="patch_1">
   <path d="M 0 432 
L 576 432 
L 576 0 
L 0 0 
z
" style="fill: #ffffff"/>
  </g>
  <g id="axes_1">
   <g id="patch_2">
    <path d="M 53.04 380.04 
L 282.555 380.04 
L 282.555 32.43375 
L 53.04 32.43375 
z
" style="fill: #ffffff"/>
   </g>
   <g id="matplotlib.axis_1">
    <g id="xtick_1">
     <g id="line2d_1">
      <defs>
       <path id="m4c99cd72f3" d="M 0 0 
L 0 3.5 
" style="stroke: #000000; stroke-width: 0.8"/>
      </defs>
      <g>
       <use xlink:href="#m4c99cd72f3" x="110.41875" y="390.04" style="stroke: #000000; stroke-width: 0.8"/>
      </g>
     </g>
     <g id="text_1">
      <!-- 2018 -->
      <g transform="translate(99.296875 404.213437) scale(0.1 -0.1)">
       <defs>
        <path id="Helvetica-32" d="M 200 0 
Q 231 578 439 1006 
Q 647 1434 1250 1784 
L 1850 2131 
Q 2253 2366 2416 2531 
Q 2672 2791 2672 3125 
Q 2672 3516 2437 3745 
Q 2203 3975 1813 3975 
Q 1234 3975 1013 3538 
Q 894 3303 881 2888 
L 309 2888 
Q 319 3472 525 3841 
Q 891 4491 1816 4491 
Q 2584 4491 2939 4075 
Q 3294 3659 3294 3150 
Q 3294 2613 2916 2231 
Q 2697 2009 2131 1694 
L 1703 1456 
Q 1397 1288 1222 1134 
Q 909 863 828 531 
L 3272 531 
L 3272 0 
L 200 0 
z
" transform="scale(0.015625)"/>
        <path id="Helvetica-30" d="M 1731 4475 
Q 2600 4475 2988 3759 
Q 3288 3206 3288 2244 
Q 3288 1331 3016 734 
Q 2622 -122 1728 -122 
Q 922 -122 528 578 
Q 200 1163 200 2147 
Q 200 2909 397 3456 
Q 766 4475 1731 4475 
z
M 1725 391 
Q 2163 391 2422 778 
Q 2681 1166 2681 2222 
Q 2681 2984 2493 3476 
Q 2306 3969 1766 3969 
Q 1269 3969 1039 3501 
Q 809 3034 809 2125 
Q 809 1441 956 1025 
Q 1181 391 1725 391 
z
" transform="scale(0.015625)"/>
        <path id="Helvetica-31" d="M 613 3169 
L 613 3600 
Q 1222 3659 1462 3798 
Q 1703 3938 1822 4456 
L 2266 4456 
L 2266 0 
L 1666 0 
L 1666 3169 
L 613 3169 
z
" transform="scale(0.015625)"/>
        <path id="Helvetica-38" d="M 1741 2600 
Q 2113 2600 2322 2808 
Q 2531 3016 2531 3303 
Q 2531 3553 2331 3762 
Q 2131 3972 1722 3972 
Q 1316 3972 1134 3762 
Q 953 3553 953 3272 
Q 953 2956 1187 2778 
Q 1422 2600 1741 2600 
z
M 1775 384 
Q 2166 384 2423 595 
Q 2681 806 2681 1225 
Q 2681 1659 2415 1884 
Q 2150 2109 1734 2109 
Q 1331 2109 1076 1879 
Q 822 1650 822 1244 
Q 822 894 1055 639 
Q 1288 384 1775 384 
z
M 975 2384 
Q 741 2484 609 2619 
Q 363 2869 363 3269 
Q 363 3769 725 4128 
Q 1088 4488 1753 4488 
Q 2397 4488 2762 4148 
Q 3128 3809 3128 3356 
Q 3128 2938 2916 2678 
Q 2797 2531 2547 2391 
Q 2825 2263 2984 2097 
Q 3281 1784 3281 1284 
Q 3281 694 2884 283 
Q 2488 -128 1763 -128 
Q 1109 -128 657 226 
Q 206 581 206 1256 
Q 206 1653 400 1942 
Q 594 2231 975 2384 
z
" transform="scale(0.015625)"/>
       </defs>
       <use xlink:href="#Helvetica-32"/>
       <use xlink:href="#Helvetica-30" x="55.615234"/>
       <use xlink:href="#Helvetica-31" x="111.230469"/>
       <use xlink:href="#Helvetica-38" x="166.845703"/>
      </g>
     </g>
    </g>
    <g id="xtick_2">
     <g id="line2d_2">
      <g>
       <use xlink:href="#m4c99cd72f3" x="225.17625" y="390.04" style="stroke: #000000; stroke-width: 0.8"/>
      </g>
     </g>
     <g id="text_2">
      <!-- 2022 -->
      <g transform="translate(214.054375 404.213437) scale(0.1 -0.1)">
       <use xlink:href="#Helvetica-32"/>
       <use xlink:href="#Helvetica-30" x="55.615234"/>
       <use xlink:href="#Helvetica-32" x="111.230469"/>
       <use xlink:href="#Helvetica-32" x="166.845703"/>
      </g>
     </g>
    </g>
    <g id="text_3">
     <!-- Year -->
     <g transform="translate(157.236562 417.47125) scale(0.1 -0.1)">
      <defs>
       <path id="Helvetica-59" d="M 131 4591 
L 856 4591 
L 2175 2384 
L 3494 4591 
L 4222 4591 
L 2488 1850 
L 2488 0 
L 1866 0 
L 1866 1850 
L 131 4591 
z
M 2184 4591 
L 2184 4591 
z
" transform="scale(0.015625)"/>
       <path id="Helvetica-65" d="M 1806 3422 
Q 2163 3422 2497 3255 
Q 2831 3088 3006 2822 
Q 3175 2569 3231 2231 
Q 3281 2000 3281 1494 
L 828 1494 
Q 844 984 1069 676 
Q 1294 369 1766 369 
Q 2206 369 2469 659 
Q 2619 828 2681 1050 
L 3234 1050 
Q 3213 866 3089 639 
Q 2966 413 2813 269 
Q 2556 19 2178 -69 
Q 1975 -119 1719 -119 
Q 1094 -119 659 336 
Q 225 791 225 1609 
Q 225 2416 662 2919 
Q 1100 3422 1806 3422 
z
M 2703 1941 
Q 2669 2306 2544 2525 
Q 2313 2931 1772 2931 
Q 1384 2931 1121 2651 
Q 859 2372 844 1941 
L 2703 1941 
z
M 1753 3428 
L 1753 3428 
z
" transform="scale(0.015625)"/>
       <path id="Helvetica-61" d="M 844 891 
Q 844 647 1022 506 
Q 1200 366 1444 366 
Q 1741 366 2019 503 
Q 2488 731 2488 1250 
L 2488 1703 
Q 2384 1638 2221 1594 
Q 2059 1550 1903 1531 
L 1563 1488 
Q 1256 1447 1103 1359 
Q 844 1213 844 891 
z
M 2206 2028 
Q 2400 2053 2466 2191 
Q 2503 2266 2503 2406 
Q 2503 2694 2298 2823 
Q 2094 2953 1713 2953 
Q 1272 2953 1088 2716 
Q 984 2584 953 2325 
L 428 2325 
Q 444 2944 830 3186 
Q 1216 3428 1725 3428 
Q 2316 3428 2684 3203 
Q 3050 2978 3050 2503 
L 3050 575 
Q 3050 488 3086 434 
Q 3122 381 3238 381 
Q 3275 381 3322 386 
Q 3369 391 3422 400 
L 3422 -16 
Q 3291 -53 3222 -62 
Q 3153 -72 3034 -72 
Q 2744 -72 2613 134 
Q 2544 244 2516 444 
Q 2344 219 2022 53 
Q 1700 -113 1313 -113 
Q 847 -113 551 170 
Q 256 453 256 878 
Q 256 1344 547 1600 
Q 838 1856 1309 1916 
L 2206 2028 
z
M 1741 3428 
L 1741 3428 
z
" transform="scale(0.015625)"/>
       <path id="Helvetica-72" d="M 428 3347 
L 963 3347 
L 963 2769 
Q 1028 2938 1284 3180 
Q 1541 3422 1875 3422 
Q 1891 3422 1928 3419 
Q 1966 3416 2056 3406 
L 2056 2813 
Q 2006 2822 1964 2825 
Q 1922 2828 1872 2828 
Q 1447 2828 1219 2554 
Q 991 2281 991 1925 
L 991 0 
L 428 0 
L 428 3347 
z
" transform="scale(0.015625)"/>
      </defs>
      <use xlink:href="#Helvetica-59"/>
      <use xlink:href="#Helvetica-65" x="66.699219"/>
      <use xlink:href="#Helvetica-61" x="122.314453"/>
      <use xlink:href="#Helvetica-72" x="177.929688"/>
     </g>
    </g>
   </g>
   <g id="matplotlib.axis_2">
    <g id="ytick_1">
     <g id="line2d_3">
      <defs>
       <path id="m8e343aef83" d="M 0 0 
L -3.5 0 
" style="stroke: #000000; stroke-width: 0.8"/>
      </defs>
      <g>
       <use xlink:href="#m8e343aef83" x="43.04" y="370.688811" style="stroke: #000000; stroke-width: 0.8"/>
      </g>
     </g>
     <g id="text_4">
      <!-- 0 -->
      <g transform="translate(30.479062 374.27553) scale(0.1 -0.1)">
       <use xlink:href="#Helvetica-30"/>
      </g>
     </g>
    </g>
    <g id="ytick_2">
     <g id="line2d_4">
      <g>
       <use xlink:href="#m8e343aef83" x="43.04" y="306.197856" style="stroke: #000000; stroke-width: 0.8"/>
      </g>
     </g>
     <g id="text_5">
      <!-- 10 -->
      <g transform="translate(24.918125 309.784575) scale(0.1 -0.1)">
       <use xlink:href="#Helvetica-31"/>
       <use xlink:href="#Helvetica-30" x="55.615234"/>
      </g>
     </g>
    </g>
    <g id="ytick_3">
     <g id="line2d_5">
      <g>
       <use xlink:href="#m8e343aef83" x="43.04" y="241.706901" style="stroke: #000000; stroke-width: 0.8"/>
      </g>
     </g>
     <g id="text_6">
      <!-- 20 -->
      <g transform="translate(24.918125 245.293619) scale(0.1 -0.1)">
       <use xlink:href="#Helvetica-32"/>
       <use xlink:href="#Helvetica-30" x="55.615234"/>
      </g>
     </g>
    </g>
    <g id="ytick_4">
     <g id="line2d_6">
      <g>
       <use xlink:href="#m8e343aef83" x="43.04" y="177.215945" style="stroke: #000000; stroke-width: 0.8"/>
      </g>
     </g>
     <g id="text_7">
      <!-- 30 -->
      <g transform="translate(24.918125 180.802664) scale(0.1 -0.1)">
       <defs>
        <path id="Helvetica-33" d="M 1663 -122 
Q 869 -122 511 314 
Q 153 750 153 1375 
L 741 1375 
Q 778 941 903 744 
Q 1122 391 1694 391 
Q 2138 391 2406 628 
Q 2675 866 2675 1241 
Q 2675 1703 2392 1887 
Q 2109 2072 1606 2072 
Q 1550 2072 1492 2070 
Q 1434 2069 1375 2066 
L 1375 2563 
Q 1463 2553 1522 2550 
Q 1581 2547 1650 2547 
Q 1966 2547 2169 2647 
Q 2525 2822 2525 3272 
Q 2525 3606 2287 3787 
Q 2050 3969 1734 3969 
Q 1172 3969 956 3594 
Q 838 3388 822 3006 
L 266 3006 
Q 266 3506 466 3856 
Q 809 4481 1675 4481 
Q 2359 4481 2734 4176 
Q 3109 3872 3109 3294 
Q 3109 2881 2888 2625 
Q 2750 2466 2531 2375 
Q 2884 2278 3082 2001 
Q 3281 1725 3281 1325 
Q 3281 684 2859 281 
Q 2438 -122 1663 -122 
z
" transform="scale(0.015625)"/>
       </defs>
       <use xlink:href="#Helvetica-33"/>
       <use xlink:href="#Helvetica-30" x="55.615234"/>
      </g>
     </g>
    </g>
    <g id="ytick_5">
     <g id="line2d_7">
      <g>
       <use xlink:href="#m8e343aef83" x="43.04" y="112.72499" style="stroke: #000000; stroke-width: 0.8"/>
      </g>
     </g>
     <g id="text_8">
      <!-- 40 -->
      <g transform="translate(24.918125 116.311708) scale(0.1 -0.1)">
       <defs>
        <path id="Helvetica-34" d="M 2116 1584 
L 2116 3613 
L 681 1584 
L 2116 1584 
z
M 2125 0 
L 2125 1094 
L 163 1094 
L 163 1644 
L 2213 4488 
L 2688 4488 
L 2688 1584 
L 3347 1584 
L 3347 1094 
L 2688 1094 
L 2688 0 
L 2125 0 
z
" transform="scale(0.015625)"/>
       </defs>
       <use xlink:href="#Helvetica-34"/>
       <use xlink:href="#Helvetica-30" x="55.615234"/>
      </g>
     </g>
    </g>
    <g id="ytick_6">
     <g id="line2d_8">
      <g>
       <use xlink:href="#m8e343aef83" x="43.04" y="48.234034" style="stroke: #000000; stroke-width: 0.8"/>
      </g>
     </g>
     <g id="text_9">
      <!-- 50 -->
      <g transform="translate(24.918125 51.820753) scale(0.1 -0.1)">
       <defs>
        <path id="Helvetica-35" d="M 791 1141 
Q 847 659 1238 475 
Q 1438 381 1700 381 
Q 2200 381 2440 700 
Q 2681 1019 2681 1406 
Q 2681 1875 2395 2131 
Q 2109 2388 1709 2388 
Q 1419 2388 1211 2275 
Q 1003 2163 856 1963 
L 369 1991 
L 709 4400 
L 3034 4400 
L 3034 3856 
L 1131 3856 
L 941 2613 
Q 1097 2731 1238 2791 
Q 1488 2894 1816 2894 
Q 2431 2894 2859 2497 
Q 3288 2100 3288 1491 
Q 3288 856 2895 371 
Q 2503 -113 1644 -113 
Q 1097 -113 676 195 
Q 256 503 206 1141 
L 791 1141 
z
" transform="scale(0.015625)"/>
       </defs>
       <use xlink:href="#Helvetica-35"/>
       <use xlink:href="#Helvetica-30" x="55.615234"/>
      </g>
     </g>
    </g>
    <g id="text_10">
     <!-- Contract duration in years -->
     <g transform="translate(18.774375 263.48375) rotate(-90) scale(0.1 -0.1)">
      <defs>
       <path id="Helvetica-43" d="M 2422 4716 
Q 3294 4716 3775 4256 
Q 4256 3797 4309 3213 
L 3703 3213 
Q 3600 3656 3292 3915 
Q 2984 4175 2428 4175 
Q 1750 4175 1333 3698 
Q 916 3222 916 2238 
Q 916 1431 1292 929 
Q 1669 428 2416 428 
Q 3103 428 3463 956 
Q 3653 1234 3747 1688 
L 4353 1688 
Q 4272 963 3816 472 
Q 3269 -119 2341 -119 
Q 1541 -119 997 366 
Q 281 1006 281 2344 
Q 281 3359 819 4009 
Q 1400 4716 2422 4716 
z
M 2297 4716 
L 2297 4716 
z
" transform="scale(0.015625)"/>
       <path id="Helvetica-6f" d="M 1741 363 
Q 2300 363 2508 786 
Q 2716 1209 2716 1728 
Q 2716 2197 2566 2491 
Q 2328 2953 1747 2953 
Q 1231 2953 997 2559 
Q 763 2166 763 1609 
Q 763 1075 997 719 
Q 1231 363 1741 363 
z
M 1763 3444 
Q 2409 3444 2856 3012 
Q 3303 2581 3303 1744 
Q 3303 934 2909 406 
Q 2516 -122 1688 -122 
Q 997 -122 590 345 
Q 184 813 184 1600 
Q 184 2444 612 2944 
Q 1041 3444 1763 3444 
z
M 1744 3428 
L 1744 3428 
z
" transform="scale(0.015625)"/>
       <path id="Helvetica-6e" d="M 413 3347 
L 947 3347 
L 947 2872 
Q 1184 3166 1450 3294 
Q 1716 3422 2041 3422 
Q 2753 3422 3003 2925 
Q 3141 2653 3141 2147 
L 3141 0 
L 2569 0 
L 2569 2109 
Q 2569 2416 2478 2603 
Q 2328 2916 1934 2916 
Q 1734 2916 1606 2875 
Q 1375 2806 1200 2600 
Q 1059 2434 1017 2257 
Q 975 2081 975 1753 
L 975 0 
L 413 0 
L 413 3347 
z
M 1734 3428 
L 1734 3428 
z
" transform="scale(0.015625)"/>
       <path id="Helvetica-74" d="M 525 4281 
L 1094 4281 
L 1094 3347 
L 1628 3347 
L 1628 2888 
L 1094 2888 
L 1094 703 
Q 1094 528 1213 469 
Q 1278 434 1431 434 
Q 1472 434 1519 436 
Q 1566 438 1628 444 
L 1628 0 
Q 1531 -28 1426 -40 
Q 1322 -53 1200 -53 
Q 806 -53 665 148 
Q 525 350 525 672 
L 525 2888 
L 72 2888 
L 72 3347 
L 525 3347 
L 525 4281 
z
" transform="scale(0.015625)"/>
       <path id="Helvetica-63" d="M 1703 3444 
Q 2269 3444 2623 3169 
Q 2978 2894 3050 2222 
L 2503 2222 
Q 2453 2531 2275 2736 
Q 2097 2941 1703 2941 
Q 1166 2941 934 2416 
Q 784 2075 784 1575 
Q 784 1072 996 728 
Q 1209 384 1666 384 
Q 2016 384 2220 598 
Q 2425 813 2503 1184 
L 3050 1184 
Q 2956 519 2581 211 
Q 2206 -97 1622 -97 
Q 966 -97 575 383 
Q 184 863 184 1581 
Q 184 2463 612 2953 
Q 1041 3444 1703 3444 
z
M 1616 3428 
L 1616 3428 
z
" transform="scale(0.015625)"/>
       <path id="Helvetica-20" transform="scale(0.015625)"/>
       <path id="Helvetica-64" d="M 769 1634 
Q 769 1097 997 734 
Q 1225 372 1728 372 
Q 2119 372 2370 708 
Q 2622 1044 2622 1672 
Q 2622 2306 2362 2611 
Q 2103 2916 1722 2916 
Q 1297 2916 1033 2591 
Q 769 2266 769 1634 
z
M 1616 3406 
Q 2000 3406 2259 3244 
Q 2409 3150 2600 2916 
L 2600 4606 
L 3141 4606 
L 3141 0 
L 2634 0 
L 2634 466 
Q 2438 156 2169 18 
Q 1900 -119 1553 -119 
Q 994 -119 584 351 
Q 175 822 175 1603 
Q 175 2334 548 2870 
Q 922 3406 1616 3406 
z
" transform="scale(0.015625)"/>
       <path id="Helvetica-75" d="M 975 3347 
L 975 1125 
Q 975 869 1056 706 
Q 1206 406 1616 406 
Q 2203 406 2416 931 
Q 2531 1213 2531 1703 
L 2531 3347 
L 3094 3347 
L 3094 0 
L 2563 0 
L 2569 494 
Q 2459 303 2297 172 
Q 1975 -91 1516 -91 
Q 800 -91 541 388 
Q 400 644 400 1072 
L 400 3347 
L 975 3347 
z
M 1747 3428 
L 1747 3428 
z
" transform="scale(0.015625)"/>
       <path id="Helvetica-69" d="M 413 3331 
L 984 3331 
L 984 0 
L 413 0 
L 413 3331 
z
M 413 4591 
L 984 4591 
L 984 3953 
L 413 3953 
L 413 4591 
z
" transform="scale(0.015625)"/>
       <path id="Helvetica-79" d="M 2503 3347 
L 3125 3347 
Q 3006 3025 2597 1878 
Q 2291 1016 2084 472 
Q 1597 -809 1397 -1090 
Q 1197 -1372 709 -1372 
Q 591 -1372 527 -1362 
Q 463 -1353 369 -1328 
L 369 -816 
Q 516 -856 581 -865 
Q 647 -875 697 -875 
Q 853 -875 926 -823 
Q 1000 -772 1050 -697 
Q 1066 -672 1162 -440 
Q 1259 -209 1303 -97 
L 66 3347 
L 703 3347 
L 1600 622 
L 2503 3347 
z
M 1597 3428 
L 1597 3428 
z
" transform="scale(0.015625)"/>
       <path id="Helvetica-73" d="M 747 1050 
Q 772 769 888 619 
Q 1100 347 1625 347 
Q 1938 347 2175 483 
Q 2413 619 2413 903 
Q 2413 1119 2222 1231 
Q 2100 1300 1741 1391 
L 1294 1503 
Q 866 1609 663 1741 
Q 300 1969 300 2372 
Q 300 2847 642 3140 
Q 984 3434 1563 3434 
Q 2319 3434 2653 2991 
Q 2863 2709 2856 2384 
L 2325 2384 
Q 2309 2575 2191 2731 
Q 1997 2953 1519 2953 
Q 1200 2953 1036 2831 
Q 872 2709 872 2509 
Q 872 2291 1088 2159 
Q 1213 2081 1456 2022 
L 1828 1931 
Q 2434 1784 2641 1647 
Q 2969 1431 2969 969 
Q 2969 522 2630 197 
Q 2291 -128 1597 -128 
Q 850 -128 539 211 
Q 228 550 206 1050 
L 747 1050 
z
M 1578 3428 
L 1578 3428 
z
" transform="scale(0.015625)"/>
      </defs>
      <use xlink:href="#Helvetica-43"/>
      <use xlink:href="#Helvetica-6f" x="72.216797"/>
      <use xlink:href="#Helvetica-6e" x="127.832031"/>
      <use xlink:href="#Helvetica-74" x="183.447266"/>
      <use xlink:href="#Helvetica-72" x="211.230469"/>
      <use xlink:href="#Helvetica-61" x="244.53125"/>
      <use xlink:href="#Helvetica-63" x="300.146484"/>
      <use xlink:href="#Helvetica-74" x="350.146484"/>
      <use xlink:href="#Helvetica-20" x="377.929688"/>
      <use xlink:href="#Helvetica-64" x="405.712891"/>
      <use xlink:href="#Helvetica-75" x="461.328125"/>
      <use xlink:href="#Helvetica-72" x="516.943359"/>
      <use xlink:href="#Helvetica-61" x="550.244141"/>
      <use xlink:href="#Helvetica-74" x="605.859375"/>
      <use xlink:href="#Helvetica-69" x="633.642578"/>
      <use xlink:href="#Helvetica-6f" x="655.859375"/>
      <use xlink:href="#Helvetica-6e" x="711.474609"/>
      <use xlink:href="#Helvetica-20" x="767.089844"/>
      <use xlink:href="#Helvetica-69" x="794.873047"/>
      <use xlink:href="#Helvetica-6e" x="817.089844"/>
      <use xlink:href="#Helvetica-20" x="872.705078"/>
      <use xlink:href="#Helvetica-79" x="900.488281"/>
      <use xlink:href="#Helvetica-65" x="950.488281"/>
      <use xlink:href="#Helvetica-61" x="1006.103516"/>
      <use xlink:href="#Helvetica-72" x="1061.71875"/>
      <use xlink:href="#Helvetica-73" x="1095.019531"/>
     </g>
    </g>
   </g>
   <g id="patch_3">
    <path d="M 64.51575 357.79062 
L 156.32175 357.79062 
L 156.32175 325.545143 
L 64.51575 325.545143 
L 64.51575 357.79062 
z
" clip-path="url(#p87a431af0c)" style="fill: #3274a1; stroke: #3f3f3f; stroke-linejoin: miter"/>
   </g>
   <g id="line2d_9">
    <path d="M 110.41875 357.79062 
L 110.41875 364.239716 
" clip-path="url(#p87a431af0c)" style="fill: none; stroke: #3f3f3f"/>
   </g>
   <g id="line2d_10">
    <path d="M 110.41875 325.545143 
L 110.41875 325.545143 
" clip-path="url(#p87a431af0c)" style="fill: none; stroke: #3f3f3f"/>
   </g>
   <g id="line2d_11">
    <path d="M 87.46725 364.239716 
L 133.37025 364.239716 
" clip-path="url(#p87a431af0c)" style="fill: none; stroke: #3f3f3f; stroke-linecap: square"/>
   </g>
   <g id="line2d_12">
    <path d="M 87.46725 325.545143 
L 133.37025 325.545143 
" clip-path="url(#p87a431af0c)" style="fill: none; stroke: #3f3f3f; stroke-linecap: square"/>
   </g>
   <g id="line2d_13">
    <defs>
     <path id="m349b976f44" d="M 0 3 
C 0.795609 3 1.55874 2.683901 2.12132 2.12132 
C 2.683901 1.55874 3 0.795609 3 0 
C 3 -0.795609 2.683901 -1.55874 2.12132 -2.12132 
C 1.55874 -2.683901 0.795609 -3 0 -3 
C -0.795609 -3 -1.55874 -2.683901 -2.12132 -2.12132 
C -2.683901 -1.55874 -3 -0.795609 -3 0 
C -3 0.795609 -2.683901 1.55874 -2.12132 2.12132 
C -1.55874 2.683901 -0.795609 3 0 3 
z
" style="stroke: #3f3f3f"/>
    </defs>
    <g clip-path="url(#p87a431af0c)">
     <use xlink:href="#m349b976f44" x="110.41875" y="254.605092" style="fill-opacity: 0; stroke: #3f3f3f"/>
     <use xlink:href="#m349b976f44" x="110.41875" y="209.461423" style="fill-opacity: 0; stroke: #3f3f3f"/>
     <use xlink:href="#m349b976f44" x="110.41875" y="48.234034" style="fill-opacity: 0; stroke: #3f3f3f"/>
     <use xlink:href="#m349b976f44" x="110.41875" y="209.461423" style="fill-opacity: 0; stroke: #3f3f3f"/>
     <use xlink:href="#m349b976f44" x="110.41875" y="209.461423" style="fill-opacity: 0; stroke: #3f3f3f"/>
     <use xlink:href="#m349b976f44" x="110.41875" y="112.72499" style="fill-opacity: 0; stroke: #3f3f3f"/>
     <use xlink:href="#m349b976f44" x="110.41875" y="241.706901" style="fill-opacity: 0; stroke: #3f3f3f"/>
     <use xlink:href="#m349b976f44" x="110.41875" y="241.706901" style="fill-opacity: 0; stroke: #3f3f3f"/>
     <use xlink:href="#m349b976f44" x="110.41875" y="241.706901" style="fill-opacity: 0; stroke: #3f3f3f"/>
    </g>
   </g>
   <g id="patch_4">
    <path d="M 179.27325 357.79062 
L 271.07925 357.79062 
L 271.07925 344.892429 
L 179.27325 344.892429 
L 179.27325 357.79062 
z
" clip-path="url(#p87a431af0c)" style="fill: #3274a1; stroke: #3f3f3f; stroke-linejoin: miter"/>
   </g>
   <g id="line2d_14">
    <path d="M 225.17625 357.79062 
L 225.17625 364.239716 
" clip-path="url(#p87a431af0c)" style="fill: none; stroke: #3f3f3f"/>
   </g>
   <g id="line2d_15">
    <path d="M 225.17625 344.892429 
L 225.17625 344.892429 
" clip-path="url(#p87a431af0c)" style="fill: none; stroke: #3f3f3f"/>
   </g>
   <g id="line2d_16">
    <path d="M 202.22475 364.239716 
L 248.12775 364.239716 
" clip-path="url(#p87a431af0c)" style="fill: none; stroke: #3f3f3f; stroke-linecap: square"/>
   </g>
   <g id="line2d_17">
    <path d="M 202.22475 344.892429 
L 248.12775 344.892429 
" clip-path="url(#p87a431af0c)" style="fill: none; stroke: #3f3f3f; stroke-linecap: square"/>
   </g>
   <g id="line2d_18"/>
   <g id="line2d_19">
    <path d="M 64.51575 344.892429 
L 156.32175 344.892429 
" clip-path="url(#p87a431af0c)" style="fill: none; stroke: #3f3f3f"/>
   </g>
   <g id="line2d_20">
    <path d="M 179.27325 357.79062 
L 271.07925 357.79062 
" clip-path="url(#p87a431af0c)" style="fill: none; stroke: #3f3f3f"/>
   </g>
   <g id="patch_5">
    <path d="M 43.04 370.688811 
L 43.04 48.234034 
" style="fill: none; stroke: #000000; stroke-width: 0.8; stroke-linejoin: miter; stroke-linecap: square"/>
   </g>
   <g id="patch_6">
    <path d="M 110.41875 390.04 
L 225.17625 390.04 
" style="fill: none; stroke: #000000; stroke-width: 0.8; stroke-linejoin: miter; stroke-linecap: square"/>
   </g>
   <g id="PathCollection_1">
    <defs>
     <path id="m7c0cf669a7" d="M 0 2.5 
C 0.663008 2.5 1.29895 2.236584 1.767767 1.767767 
C 2.236584 1.29895 2.5 0.663008 2.5 0 
C 2.5 -0.663008 2.236584 -1.29895 1.767767 -1.767767 
C 1.29895 -2.236584 0.663008 -2.5 0 -2.5 
C -0.663008 -2.5 -1.29895 -2.236584 -1.767767 -1.767767 
C -2.236584 -1.29895 -2.5 -0.663008 -2.5 0 
C -2.5 0.663008 -2.236584 1.29895 -1.767767 1.767767 
C -1.29895 2.236584 -0.663008 2.5 0 2.5 
z
"/>
    </defs>
    <g clip-path="url(#p87a431af0c)">
     <use xlink:href="#m7c0cf669a7" x="110.41875" y="325.545143" style="fill: #808080; fill-opacity: 0.75"/>
     <use xlink:href="#m7c0cf669a7" x="126.16875" y="344.892429" style="fill: #808080; fill-opacity: 0.75"/>
     <use xlink:href="#m7c0cf669a7" x="110.41875" y="254.605092" style="fill: #808080; fill-opacity: 0.75"/>
     <use xlink:href="#m7c0cf669a7" x="105.16875" y="325.545143" style="fill: #808080; fill-opacity: 0.75"/>
     <use xlink:href="#m7c0cf669a7" x="110.41875" y="351.341525" style="fill: #808080; fill-opacity: 0.75"/>
     <use xlink:href="#m7c0cf669a7" x="89.41875" y="357.79062" style="fill: #808080; fill-opacity: 0.75"/>
     <use xlink:href="#m7c0cf669a7" x="84.16875" y="357.79062" style="fill: #808080; fill-opacity: 0.75"/>
     <use xlink:href="#m7c0cf669a7" x="94.66875" y="357.79062" style="fill: #808080; fill-opacity: 0.75"/>
     <use xlink:href="#m7c0cf669a7" x="120.91875" y="357.79062" style="fill: #808080; fill-opacity: 0.75"/>
     <use xlink:href="#m7c0cf669a7" x="115.66875" y="209.461423" style="fill: #808080; fill-opacity: 0.75"/>
     <use xlink:href="#m7c0cf669a7" x="115.66875" y="351.341525" style="fill: #808080; fill-opacity: 0.75"/>
     <use xlink:href="#m7c0cf669a7" x="110.41875" y="48.234034" style="fill: #808080; fill-opacity: 0.75"/>
     <use xlink:href="#m7c0cf669a7" x="110.41875" y="364.239716" style="fill: #808080; fill-opacity: 0.75"/>
     <use xlink:href="#m7c0cf669a7" x="105.16875" y="338.443334" style="fill: #808080; fill-opacity: 0.75"/>
     <use xlink:href="#m7c0cf669a7" x="105.16875" y="209.461423" style="fill: #808080; fill-opacity: 0.75"/>
     <use xlink:href="#m7c0cf669a7" x="120.91875" y="351.341525" style="fill: #808080; fill-opacity: 0.75"/>
     <use xlink:href="#m7c0cf669a7" x="110.41875" y="209.461423" style="fill: #808080; fill-opacity: 0.75"/>
     <use xlink:href="#m7c0cf669a7" x="120.91875" y="344.892429" style="fill: #808080; fill-opacity: 0.75"/>
     <use xlink:href="#m7c0cf669a7" x="99.91875" y="351.341525" style="fill: #808080; fill-opacity: 0.75"/>
     <use xlink:href="#m7c0cf669a7" x="110.41875" y="112.72499" style="fill: #808080; fill-opacity: 0.75"/>
     <use xlink:href="#m7c0cf669a7" x="105.16875" y="241.706901" style="fill: #808080; fill-opacity: 0.75"/>
     <use xlink:href="#m7c0cf669a7" x="115.66875" y="344.892429" style="fill: #808080; fill-opacity: 0.75"/>
     <use xlink:href="#m7c0cf669a7" x="105.16875" y="351.341525" style="fill: #808080; fill-opacity: 0.75"/>
     <use xlink:href="#m7c0cf669a7" x="110.41875" y="344.892429" style="fill: #808080; fill-opacity: 0.75"/>
     <use xlink:href="#m7c0cf669a7" x="105.16875" y="344.892429" style="fill: #808080; fill-opacity: 0.75"/>
     <use xlink:href="#m7c0cf669a7" x="110.41875" y="338.443334" style="fill: #808080; fill-opacity: 0.75"/>
     <use xlink:href="#m7c0cf669a7" x="99.91875" y="344.892429" style="fill: #808080; fill-opacity: 0.75"/>
     <use xlink:href="#m7c0cf669a7" x="126.16875" y="357.79062" style="fill: #808080; fill-opacity: 0.75"/>
     <use xlink:href="#m7c0cf669a7" x="89.41875" y="344.892429" style="fill: #808080; fill-opacity: 0.75"/>
     <use xlink:href="#m7c0cf669a7" x="105.16875" y="357.79062" style="fill: #808080; fill-opacity: 0.75"/>
     <use xlink:href="#m7c0cf669a7" x="115.66875" y="357.79062" style="fill: #808080; fill-opacity: 0.75"/>
     <use xlink:href="#m7c0cf669a7" x="94.66875" y="344.892429" style="fill: #808080; fill-opacity: 0.75"/>
     <use xlink:href="#m7c0cf669a7" x="110.41875" y="357.79062" style="fill: #808080; fill-opacity: 0.75"/>
     <use xlink:href="#m7c0cf669a7" x="131.41875" y="357.79062" style="fill: #808080; fill-opacity: 0.75"/>
     <use xlink:href="#m7c0cf669a7" x="135.431109" y="354.566073" style="fill: #808080; fill-opacity: 0.75"/>
     <use xlink:href="#m7c0cf669a7" x="110.41875" y="241.706901" style="fill: #808080; fill-opacity: 0.75"/>
     <use xlink:href="#m7c0cf669a7" x="99.91875" y="357.79062" style="fill: #808080; fill-opacity: 0.75"/>
     <use xlink:href="#m7c0cf669a7" x="115.66875" y="241.706901" style="fill: #808080; fill-opacity: 0.75"/>
    </g>
   </g>
   <g id="PathCollection_2">
    <g clip-path="url(#p87a431af0c)">
     <use xlink:href="#m7c0cf669a7" x="240.92625" y="344.892429" style="fill: #808080; fill-opacity: 0.75"/>
     <use xlink:href="#m7c0cf669a7" x="214.67625" y="364.239716" style="fill: #808080; fill-opacity: 0.75"/>
     <use xlink:href="#m7c0cf669a7" x="219.92625" y="357.79062" style="fill: #808080; fill-opacity: 0.75"/>
     <use xlink:href="#m7c0cf669a7" x="225.17625" y="357.79062" style="fill: #808080; fill-opacity: 0.75"/>
     <use xlink:href="#m7c0cf669a7" x="242.774298" y="357.79062" style="fill: #808080; fill-opacity: 0.75"/>
     <use xlink:href="#m7c0cf669a7" x="209.42625" y="357.79062" style="fill: #808080; fill-opacity: 0.75"/>
     <use xlink:href="#m7c0cf669a7" x="225.17625" y="344.892429" style="fill: #808080; fill-opacity: 0.75"/>
     <use xlink:href="#m7c0cf669a7" x="219.92625" y="364.239716" style="fill: #808080; fill-opacity: 0.75"/>
     <use xlink:href="#m7c0cf669a7" x="225.17625" y="351.341525" style="fill: #808080; fill-opacity: 0.75"/>
     <use xlink:href="#m7c0cf669a7" x="209.42625" y="344.892429" style="fill: #808080; fill-opacity: 0.75"/>
     <use xlink:href="#m7c0cf669a7" x="225.17625" y="364.239716" style="fill: #808080; fill-opacity: 0.75"/>
     <use xlink:href="#m7c0cf669a7" x="237.524298" y="357.79062" style="fill: #808080; fill-opacity: 0.75"/>
     <use xlink:href="#m7c0cf669a7" x="235.267288" y="362.304987" style="fill: #808080; fill-opacity: 0.75"/>
     <use xlink:href="#m7c0cf669a7" x="230.42625" y="357.79062" style="fill: #808080; fill-opacity: 0.75"/>
     <use xlink:href="#m7c0cf669a7" x="219.92625" y="344.892429" style="fill: #808080; fill-opacity: 0.75"/>
     <use xlink:href="#m7c0cf669a7" x="230.42625" y="344.892429" style="fill: #808080; fill-opacity: 0.75"/>
     <use xlink:href="#m7c0cf669a7" x="219.92625" y="351.341525" style="fill: #808080; fill-opacity: 0.75"/>
     <use xlink:href="#m7c0cf669a7" x="214.67625" y="344.892429" style="fill: #808080; fill-opacity: 0.75"/>
     <use xlink:href="#m7c0cf669a7" x="235.67625" y="344.892429" style="fill: #808080; fill-opacity: 0.75"/>
     <use xlink:href="#m7c0cf669a7" x="214.67625" y="357.79062" style="fill: #808080; fill-opacity: 0.75"/>
     <use xlink:href="#m7c0cf669a7" x="230.42625" y="364.239716" style="fill: #808080; fill-opacity: 0.75"/>
    </g>
   </g>
  </g>
  <g id="axes_2">
   <g id="patch_7">
    <path d="M 335.685 380.04 
L 565.2 380.04 
L 565.2 32.43375 
L 335.685 32.43375 
z
" style="fill: #ffffff"/>
   </g>
   <g id="patch_8">
    <path d="M 348.290938 380.04 
L 350.464375 380.04 
L 350.464375 48.986429 
L 348.290938 48.986429 
z
" clip-path="url(#pb3e505b377)" style="fill: #2d1e3e; fill-opacity: 0.5; stroke: #000000; stroke-width: 0.228984; stroke-linejoin: miter"/>
   </g>
   <g id="patch_9">
    <path d="M 352.637812 380.04 
L 354.81125 380.04 
L 354.81125 324.864405 
L 352.637812 324.864405 
z
" clip-path="url(#pb3e505b377)" style="fill: #2d1e3e; fill-opacity: 0.5; stroke: #000000; stroke-width: 0.228984; stroke-linejoin: miter"/>
   </g>
   <g id="patch_10">
    <path d="M 356.984688 380.04 
L 359.158125 380.04 
L 359.158125 186.925417 
L 356.984688 186.925417 
z
" clip-path="url(#pb3e505b377)" style="fill: #2d1e3e; fill-opacity: 0.5; stroke: #000000; stroke-width: 0.228984; stroke-linejoin: miter"/>
   </g>
   <g id="patch_11">
    <path d="M 361.331563 380.04 
L 363.505 380.04 
L 363.505 380.04 
L 361.331563 380.04 
z
" clip-path="url(#pb3e505b377)" style="fill: #2d1e3e; fill-opacity: 0.5; stroke: #000000; stroke-width: 0.228984; stroke-linejoin: miter"/>
   </g>
   <g id="patch_12">
    <path d="M 365.678438 380.04 
L 367.851875 380.04 
L 367.851875 380.04 
L 365.678438 380.04 
z
" clip-path="url(#pb3e505b377)" style="fill: #2d1e3e; fill-opacity: 0.5; stroke: #000000; stroke-width: 0.228984; stroke-linejoin: miter"/>
   </g>
   <g id="patch_13">
    <path d="M 370.025312 380.04 
L 372.19875 380.04 
L 372.19875 380.04 
L 370.025312 380.04 
z
" clip-path="url(#pb3e505b377)" style="fill: #2d1e3e; fill-opacity: 0.5; stroke: #000000; stroke-width: 0.228984; stroke-linejoin: miter"/>
   </g>
   <g id="patch_14">
    <path d="M 374.372187 380.04 
L 376.545625 380.04 
L 376.545625 380.04 
L 374.372187 380.04 
z
" clip-path="url(#pb3e505b377)" style="fill: #2d1e3e; fill-opacity: 0.5; stroke: #000000; stroke-width: 0.228984; stroke-linejoin: miter"/>
   </g>
   <g id="patch_15">
    <path d="M 378.719063 380.04 
L 380.8925 380.04 
L 380.8925 380.04 
L 378.719063 380.04 
z
" clip-path="url(#pb3e505b377)" style="fill: #2d1e3e; fill-opacity: 0.5; stroke: #000000; stroke-width: 0.228984; stroke-linejoin: miter"/>
   </g>
   <g id="patch_16">
    <path d="M 383.065938 380.04 
L 385.239375 380.04 
L 385.239375 380.04 
L 383.065938 380.04 
z
" clip-path="url(#pb3e505b377)" style="fill: #2d1e3e; fill-opacity: 0.5; stroke: #000000; stroke-width: 0.228984; stroke-linejoin: miter"/>
   </g>
   <g id="patch_17">
    <path d="M 387.412812 380.04 
L 389.58625 380.04 
L 389.58625 380.04 
L 387.412812 380.04 
z
" clip-path="url(#pb3e505b377)" style="fill: #2d1e3e; fill-opacity: 0.5; stroke: #000000; stroke-width: 0.228984; stroke-linejoin: miter"/>
   </g>
   <g id="patch_18">
    <path d="M 391.759687 380.04 
L 393.933125 380.04 
L 393.933125 380.04 
L 391.759687 380.04 
z
" clip-path="url(#pb3e505b377)" style="fill: #2d1e3e; fill-opacity: 0.5; stroke: #000000; stroke-width: 0.228984; stroke-linejoin: miter"/>
   </g>
   <g id="patch_19">
    <path d="M 396.106562 380.04 
L 398.28 380.04 
L 398.28 380.04 
L 396.106562 380.04 
z
" clip-path="url(#pb3e505b377)" style="fill: #2d1e3e; fill-opacity: 0.5; stroke: #000000; stroke-width: 0.228984; stroke-linejoin: miter"/>
   </g>
   <g id="patch_20">
    <path d="M 400.453438 380.04 
L 402.626875 380.04 
L 402.626875 380.04 
L 400.453438 380.04 
z
" clip-path="url(#pb3e505b377)" style="fill: #2d1e3e; fill-opacity: 0.5; stroke: #000000; stroke-width: 0.228984; stroke-linejoin: miter"/>
   </g>
   <g id="patch_21">
    <path d="M 404.800313 380.04 
L 406.97375 380.04 
L 406.97375 380.04 
L 404.800313 380.04 
z
" clip-path="url(#pb3e505b377)" style="fill: #2d1e3e; fill-opacity: 0.5; stroke: #000000; stroke-width: 0.228984; stroke-linejoin: miter"/>
   </g>
   <g id="patch_22">
    <path d="M 409.147187 380.04 
L 411.320625 380.04 
L 411.320625 380.04 
L 409.147187 380.04 
z
" clip-path="url(#pb3e505b377)" style="fill: #2d1e3e; fill-opacity: 0.5; stroke: #000000; stroke-width: 0.228984; stroke-linejoin: miter"/>
   </g>
   <g id="patch_23">
    <path d="M 413.494062 380.04 
L 415.6675 380.04 
L 415.6675 380.04 
L 413.494062 380.04 
z
" clip-path="url(#pb3e505b377)" style="fill: #2d1e3e; fill-opacity: 0.5; stroke: #000000; stroke-width: 0.228984; stroke-linejoin: miter"/>
   </g>
   <g id="patch_24">
    <path d="M 417.840937 380.04 
L 420.014375 380.04 
L 420.014375 380.04 
L 417.840937 380.04 
z
" clip-path="url(#pb3e505b377)" style="fill: #2d1e3e; fill-opacity: 0.5; stroke: #000000; stroke-width: 0.228984; stroke-linejoin: miter"/>
   </g>
   <g id="patch_25">
    <path d="M 422.187812 380.04 
L 424.36125 380.04 
L 424.36125 380.04 
L 422.187812 380.04 
z
" clip-path="url(#pb3e505b377)" style="fill: #2d1e3e; fill-opacity: 0.5; stroke: #000000; stroke-width: 0.228984; stroke-linejoin: miter"/>
   </g>
   <g id="patch_26">
    <path d="M 426.534687 380.04 
L 428.708125 380.04 
L 428.708125 380.04 
L 426.534687 380.04 
z
" clip-path="url(#pb3e505b377)" style="fill: #2d1e3e; fill-opacity: 0.5; stroke: #000000; stroke-width: 0.228984; stroke-linejoin: miter"/>
   </g>
   <g id="patch_27">
    <path d="M 430.881562 380.04 
L 433.055 380.04 
L 433.055 380.04 
L 430.881562 380.04 
z
" clip-path="url(#pb3e505b377)" style="fill: #2d1e3e; fill-opacity: 0.5; stroke: #000000; stroke-width: 0.228984; stroke-linejoin: miter"/>
   </g>
   <g id="patch_28">
    <path d="M 435.228437 380.04 
L 437.401875 380.04 
L 437.401875 380.04 
L 435.228437 380.04 
z
" clip-path="url(#pb3e505b377)" style="fill: #2d1e3e; fill-opacity: 0.5; stroke: #000000; stroke-width: 0.228984; stroke-linejoin: miter"/>
   </g>
   <g id="patch_29">
    <path d="M 439.575312 380.04 
L 441.74875 380.04 
L 441.74875 380.04 
L 439.575312 380.04 
z
" clip-path="url(#pb3e505b377)" style="fill: #2d1e3e; fill-opacity: 0.5; stroke: #000000; stroke-width: 0.228984; stroke-linejoin: miter"/>
   </g>
   <g id="patch_30">
    <path d="M 443.922187 380.04 
L 446.095625 380.04 
L 446.095625 380.04 
L 443.922187 380.04 
z
" clip-path="url(#pb3e505b377)" style="fill: #2d1e3e; fill-opacity: 0.5; stroke: #000000; stroke-width: 0.228984; stroke-linejoin: miter"/>
   </g>
   <g id="patch_31">
    <path d="M 448.269062 380.04 
L 450.4425 380.04 
L 450.4425 380.04 
L 448.269062 380.04 
z
" clip-path="url(#pb3e505b377)" style="fill: #2d1e3e; fill-opacity: 0.5; stroke: #000000; stroke-width: 0.228984; stroke-linejoin: miter"/>
   </g>
   <g id="patch_32">
    <path d="M 452.615937 380.04 
L 454.789375 380.04 
L 454.789375 380.04 
L 452.615937 380.04 
z
" clip-path="url(#pb3e505b377)" style="fill: #2d1e3e; fill-opacity: 0.5; stroke: #000000; stroke-width: 0.228984; stroke-linejoin: miter"/>
   </g>
   <g id="patch_33">
    <path d="M 456.962812 380.04 
L 459.13625 380.04 
L 459.13625 380.04 
L 456.962812 380.04 
z
" clip-path="url(#pb3e505b377)" style="fill: #2d1e3e; fill-opacity: 0.5; stroke: #000000; stroke-width: 0.228984; stroke-linejoin: miter"/>
   </g>
   <g id="patch_34">
    <path d="M 461.309687 380.04 
L 463.483125 380.04 
L 463.483125 380.04 
L 461.309687 380.04 
z
" clip-path="url(#pb3e505b377)" style="fill: #2d1e3e; fill-opacity: 0.5; stroke: #000000; stroke-width: 0.228984; stroke-linejoin: miter"/>
   </g>
   <g id="patch_35">
    <path d="M 465.656562 380.04 
L 467.83 380.04 
L 467.83 380.04 
L 465.656562 380.04 
z
" clip-path="url(#pb3e505b377)" style="fill: #2d1e3e; fill-opacity: 0.5; stroke: #000000; stroke-width: 0.228984; stroke-linejoin: miter"/>
   </g>
   <g id="patch_36">
    <path d="M 470.003437 380.04 
L 472.176875 380.04 
L 472.176875 380.04 
L 470.003437 380.04 
z
" clip-path="url(#pb3e505b377)" style="fill: #2d1e3e; fill-opacity: 0.5; stroke: #000000; stroke-width: 0.228984; stroke-linejoin: miter"/>
   </g>
   <g id="patch_37">
    <path d="M 474.350312 380.04 
L 476.52375 380.04 
L 476.52375 380.04 
L 474.350312 380.04 
z
" clip-path="url(#pb3e505b377)" style="fill: #2d1e3e; fill-opacity: 0.5; stroke: #000000; stroke-width: 0.228984; stroke-linejoin: miter"/>
   </g>
   <g id="patch_38">
    <path d="M 478.697187 380.04 
L 480.870625 380.04 
L 480.870625 380.04 
L 478.697187 380.04 
z
" clip-path="url(#pb3e505b377)" style="fill: #2d1e3e; fill-opacity: 0.5; stroke: #000000; stroke-width: 0.228984; stroke-linejoin: miter"/>
   </g>
   <g id="patch_39">
    <path d="M 483.044062 380.04 
L 485.2175 380.04 
L 485.2175 380.04 
L 483.044062 380.04 
z
" clip-path="url(#pb3e505b377)" style="fill: #2d1e3e; fill-opacity: 0.5; stroke: #000000; stroke-width: 0.228984; stroke-linejoin: miter"/>
   </g>
   <g id="patch_40">
    <path d="M 487.390937 380.04 
L 489.564375 380.04 
L 489.564375 380.04 
L 487.390937 380.04 
z
" clip-path="url(#pb3e505b377)" style="fill: #2d1e3e; fill-opacity: 0.5; stroke: #000000; stroke-width: 0.228984; stroke-linejoin: miter"/>
   </g>
   <g id="patch_41">
    <path d="M 491.737812 380.04 
L 493.91125 380.04 
L 493.91125 380.04 
L 491.737812 380.04 
z
" clip-path="url(#pb3e505b377)" style="fill: #2d1e3e; fill-opacity: 0.5; stroke: #000000; stroke-width: 0.228984; stroke-linejoin: miter"/>
   </g>
   <g id="patch_42">
    <path d="M 496.084687 380.04 
L 498.258125 380.04 
L 498.258125 380.04 
L 496.084687 380.04 
z
" clip-path="url(#pb3e505b377)" style="fill: #2d1e3e; fill-opacity: 0.5; stroke: #000000; stroke-width: 0.228984; stroke-linejoin: miter"/>
   </g>
   <g id="patch_43">
    <path d="M 500.431562 380.04 
L 502.605 380.04 
L 502.605 380.04 
L 500.431562 380.04 
z
" clip-path="url(#pb3e505b377)" style="fill: #2d1e3e; fill-opacity: 0.5; stroke: #000000; stroke-width: 0.228984; stroke-linejoin: miter"/>
   </g>
   <g id="patch_44">
    <path d="M 504.778437 380.04 
L 506.951875 380.04 
L 506.951875 380.04 
L 504.778437 380.04 
z
" clip-path="url(#pb3e505b377)" style="fill: #2d1e3e; fill-opacity: 0.5; stroke: #000000; stroke-width: 0.228984; stroke-linejoin: miter"/>
   </g>
   <g id="patch_45">
    <path d="M 509.125312 380.04 
L 511.29875 380.04 
L 511.29875 380.04 
L 509.125312 380.04 
z
" clip-path="url(#pb3e505b377)" style="fill: #2d1e3e; fill-opacity: 0.5; stroke: #000000; stroke-width: 0.228984; stroke-linejoin: miter"/>
   </g>
   <g id="patch_46">
    <path d="M 513.472187 380.04 
L 515.645625 380.04 
L 515.645625 380.04 
L 513.472187 380.04 
z
" clip-path="url(#pb3e505b377)" style="fill: #2d1e3e; fill-opacity: 0.5; stroke: #000000; stroke-width: 0.228984; stroke-linejoin: miter"/>
   </g>
   <g id="patch_47">
    <path d="M 517.819062 380.04 
L 519.9925 380.04 
L 519.9925 380.04 
L 517.819062 380.04 
z
" clip-path="url(#pb3e505b377)" style="fill: #2d1e3e; fill-opacity: 0.5; stroke: #000000; stroke-width: 0.228984; stroke-linejoin: miter"/>
   </g>
   <g id="patch_48">
    <path d="M 522.165937 380.04 
L 524.339375 380.04 
L 524.339375 380.04 
L 522.165937 380.04 
z
" clip-path="url(#pb3e505b377)" style="fill: #2d1e3e; fill-opacity: 0.5; stroke: #000000; stroke-width: 0.228984; stroke-linejoin: miter"/>
   </g>
   <g id="patch_49">
    <path d="M 526.512812 380.04 
L 528.68625 380.04 
L 528.68625 380.04 
L 526.512812 380.04 
z
" clip-path="url(#pb3e505b377)" style="fill: #2d1e3e; fill-opacity: 0.5; stroke: #000000; stroke-width: 0.228984; stroke-linejoin: miter"/>
   </g>
   <g id="patch_50">
    <path d="M 530.859687 380.04 
L 533.033125 380.04 
L 533.033125 380.04 
L 530.859687 380.04 
z
" clip-path="url(#pb3e505b377)" style="fill: #2d1e3e; fill-opacity: 0.5; stroke: #000000; stroke-width: 0.228984; stroke-linejoin: miter"/>
   </g>
   <g id="patch_51">
    <path d="M 535.206562 380.04 
L 537.38 380.04 
L 537.38 380.04 
L 535.206562 380.04 
z
" clip-path="url(#pb3e505b377)" style="fill: #2d1e3e; fill-opacity: 0.5; stroke: #000000; stroke-width: 0.228984; stroke-linejoin: miter"/>
   </g>
   <g id="patch_52">
    <path d="M 539.553437 380.04 
L 541.726875 380.04 
L 541.726875 380.04 
L 539.553437 380.04 
z
" clip-path="url(#pb3e505b377)" style="fill: #2d1e3e; fill-opacity: 0.5; stroke: #000000; stroke-width: 0.228984; stroke-linejoin: miter"/>
   </g>
   <g id="patch_53">
    <path d="M 543.900312 380.04 
L 546.07375 380.04 
L 546.07375 380.04 
L 543.900312 380.04 
z
" clip-path="url(#pb3e505b377)" style="fill: #2d1e3e; fill-opacity: 0.5; stroke: #000000; stroke-width: 0.228984; stroke-linejoin: miter"/>
   </g>
   <g id="patch_54">
    <path d="M 548.247187 380.04 
L 550.420625 380.04 
L 550.420625 380.04 
L 548.247187 380.04 
z
" clip-path="url(#pb3e505b377)" style="fill: #2d1e3e; fill-opacity: 0.5; stroke: #000000; stroke-width: 0.228984; stroke-linejoin: miter"/>
   </g>
   <g id="patch_55">
    <path d="M 552.594062 380.04 
L 554.7675 380.04 
L 554.7675 380.04 
L 552.594062 380.04 
z
" clip-path="url(#pb3e505b377)" style="fill: #2d1e3e; fill-opacity: 0.5; stroke: #000000; stroke-width: 0.228984; stroke-linejoin: miter"/>
   </g>
   <g id="patch_56">
    <path d="M 346.1175 380.04 
L 348.290937 380.04 
L 348.290937 76.574226 
L 346.1175 76.574226 
z
" clip-path="url(#pb3e505b377)" style="fill: #edd1cb; fill-opacity: 0.5; stroke: #000000; stroke-width: 0.228984; stroke-linejoin: miter"/>
   </g>
   <g id="patch_57">
    <path d="M 350.464375 380.04 
L 352.637812 380.04 
L 352.637812 214.513214 
L 350.464375 214.513214 
z
" clip-path="url(#pb3e505b377)" style="fill: #edd1cb; fill-opacity: 0.5; stroke: #000000; stroke-width: 0.228984; stroke-linejoin: miter"/>
   </g>
   <g id="patch_58">
    <path d="M 354.81125 380.04 
L 356.984688 380.04 
L 356.984688 159.337619 
L 354.81125 159.337619 
z
" clip-path="url(#pb3e505b377)" style="fill: #edd1cb; fill-opacity: 0.5; stroke: #000000; stroke-width: 0.228984; stroke-linejoin: miter"/>
   </g>
   <g id="patch_59">
    <path d="M 359.158125 380.04 
L 361.331563 380.04 
L 361.331563 324.864405 
L 359.158125 324.864405 
z
" clip-path="url(#pb3e505b377)" style="fill: #edd1cb; fill-opacity: 0.5; stroke: #000000; stroke-width: 0.228984; stroke-linejoin: miter"/>
   </g>
   <g id="patch_60">
    <path d="M 363.505 380.04 
L 365.678437 380.04 
L 365.678437 380.04 
L 363.505 380.04 
z
" clip-path="url(#pb3e505b377)" style="fill: #edd1cb; fill-opacity: 0.5; stroke: #000000; stroke-width: 0.228984; stroke-linejoin: miter"/>
   </g>
   <g id="patch_61">
    <path d="M 367.851875 380.04 
L 370.025312 380.04 
L 370.025312 324.864405 
L 367.851875 324.864405 
z
" clip-path="url(#pb3e505b377)" style="fill: #edd1cb; fill-opacity: 0.5; stroke: #000000; stroke-width: 0.228984; stroke-linejoin: miter"/>
   </g>
   <g id="patch_62">
    <path d="M 372.19875 380.04 
L 374.372187 380.04 
L 374.372187 380.04 
L 372.19875 380.04 
z
" clip-path="url(#pb3e505b377)" style="fill: #edd1cb; fill-opacity: 0.5; stroke: #000000; stroke-width: 0.228984; stroke-linejoin: miter"/>
   </g>
   <g id="patch_63">
    <path d="M 376.545625 380.04 
L 378.719062 380.04 
L 378.719062 380.04 
L 376.545625 380.04 
z
" clip-path="url(#pb3e505b377)" style="fill: #edd1cb; fill-opacity: 0.5; stroke: #000000; stroke-width: 0.228984; stroke-linejoin: miter"/>
   </g>
   <g id="patch_64">
    <path d="M 380.8925 380.04 
L 383.065937 380.04 
L 383.065937 380.04 
L 380.8925 380.04 
z
" clip-path="url(#pb3e505b377)" style="fill: #edd1cb; fill-opacity: 0.5; stroke: #000000; stroke-width: 0.228984; stroke-linejoin: miter"/>
   </g>
   <g id="patch_65">
    <path d="M 385.239375 380.04 
L 387.412812 380.04 
L 387.412812 380.04 
L 385.239375 380.04 
z
" clip-path="url(#pb3e505b377)" style="fill: #edd1cb; fill-opacity: 0.5; stroke: #000000; stroke-width: 0.228984; stroke-linejoin: miter"/>
   </g>
   <g id="patch_66">
    <path d="M 389.58625 380.04 
L 391.759687 380.04 
L 391.759687 380.04 
L 389.58625 380.04 
z
" clip-path="url(#pb3e505b377)" style="fill: #edd1cb; fill-opacity: 0.5; stroke: #000000; stroke-width: 0.228984; stroke-linejoin: miter"/>
   </g>
   <g id="patch_67">
    <path d="M 393.933125 380.04 
L 396.106562 380.04 
L 396.106562 380.04 
L 393.933125 380.04 
z
" clip-path="url(#pb3e505b377)" style="fill: #edd1cb; fill-opacity: 0.5; stroke: #000000; stroke-width: 0.228984; stroke-linejoin: miter"/>
   </g>
   <g id="patch_68">
    <path d="M 398.28 380.04 
L 400.453437 380.04 
L 400.453437 380.04 
L 398.28 380.04 
z
" clip-path="url(#pb3e505b377)" style="fill: #edd1cb; fill-opacity: 0.5; stroke: #000000; stroke-width: 0.228984; stroke-linejoin: miter"/>
   </g>
   <g id="patch_69">
    <path d="M 402.626875 380.04 
L 404.800312 380.04 
L 404.800312 380.04 
L 402.626875 380.04 
z
" clip-path="url(#pb3e505b377)" style="fill: #edd1cb; fill-opacity: 0.5; stroke: #000000; stroke-width: 0.228984; stroke-linejoin: miter"/>
   </g>
   <g id="patch_70">
    <path d="M 406.97375 380.04 
L 409.147187 380.04 
L 409.147187 380.04 
L 406.97375 380.04 
z
" clip-path="url(#pb3e505b377)" style="fill: #edd1cb; fill-opacity: 0.5; stroke: #000000; stroke-width: 0.228984; stroke-linejoin: miter"/>
   </g>
   <g id="patch_71">
    <path d="M 411.320625 380.04 
L 413.494062 380.04 
L 413.494062 380.04 
L 411.320625 380.04 
z
" clip-path="url(#pb3e505b377)" style="fill: #edd1cb; fill-opacity: 0.5; stroke: #000000; stroke-width: 0.228984; stroke-linejoin: miter"/>
   </g>
   <g id="patch_72">
    <path d="M 415.6675 380.04 
L 417.840937 380.04 
L 417.840937 352.452202 
L 415.6675 352.452202 
z
" clip-path="url(#pb3e505b377)" style="fill: #edd1cb; fill-opacity: 0.5; stroke: #000000; stroke-width: 0.228984; stroke-linejoin: miter"/>
   </g>
   <g id="patch_73">
    <path d="M 420.014375 380.04 
L 422.187812 380.04 
L 422.187812 380.04 
L 420.014375 380.04 
z
" clip-path="url(#pb3e505b377)" style="fill: #edd1cb; fill-opacity: 0.5; stroke: #000000; stroke-width: 0.228984; stroke-linejoin: miter"/>
   </g>
   <g id="patch_74">
    <path d="M 424.36125 380.04 
L 426.534687 380.04 
L 426.534687 297.276607 
L 424.36125 297.276607 
z
" clip-path="url(#pb3e505b377)" style="fill: #edd1cb; fill-opacity: 0.5; stroke: #000000; stroke-width: 0.228984; stroke-linejoin: miter"/>
   </g>
   <g id="patch_75">
    <path d="M 428.708125 380.04 
L 430.881562 380.04 
L 430.881562 380.04 
L 428.708125 380.04 
z
" clip-path="url(#pb3e505b377)" style="fill: #edd1cb; fill-opacity: 0.5; stroke: #000000; stroke-width: 0.228984; stroke-linejoin: miter"/>
   </g>
   <g id="patch_76">
    <path d="M 433.055 380.04 
L 435.228437 380.04 
L 435.228437 380.04 
L 433.055 380.04 
z
" clip-path="url(#pb3e505b377)" style="fill: #edd1cb; fill-opacity: 0.5; stroke: #000000; stroke-width: 0.228984; stroke-linejoin: miter"/>
   </g>
   <g id="patch_77">
    <path d="M 437.401875 380.04 
L 439.575312 380.04 
L 439.575312 380.04 
L 437.401875 380.04 
z
" clip-path="url(#pb3e505b377)" style="fill: #edd1cb; fill-opacity: 0.5; stroke: #000000; stroke-width: 0.228984; stroke-linejoin: miter"/>
   </g>
   <g id="patch_78">
    <path d="M 441.74875 380.04 
L 443.922187 380.04 
L 443.922187 380.04 
L 441.74875 380.04 
z
" clip-path="url(#pb3e505b377)" style="fill: #edd1cb; fill-opacity: 0.5; stroke: #000000; stroke-width: 0.228984; stroke-linejoin: miter"/>
   </g>
   <g id="patch_79">
    <path d="M 446.095625 380.04 
L 448.269062 380.04 
L 448.269062 297.276607 
L 446.095625 297.276607 
z
" clip-path="url(#pb3e505b377)" style="fill: #edd1cb; fill-opacity: 0.5; stroke: #000000; stroke-width: 0.228984; stroke-linejoin: miter"/>
   </g>
   <g id="patch_80">
    <path d="M 450.4425 380.04 
L 452.615937 380.04 
L 452.615937 380.04 
L 450.4425 380.04 
z
" clip-path="url(#pb3e505b377)" style="fill: #edd1cb; fill-opacity: 0.5; stroke: #000000; stroke-width: 0.228984; stroke-linejoin: miter"/>
   </g>
   <g id="patch_81">
    <path d="M 454.789375 380.04 
L 456.962812 380.04 
L 456.962812 380.04 
L 454.789375 380.04 
z
" clip-path="url(#pb3e505b377)" style="fill: #edd1cb; fill-opacity: 0.5; stroke: #000000; stroke-width: 0.228984; stroke-linejoin: miter"/>
   </g>
   <g id="patch_82">
    <path d="M 459.13625 380.04 
L 461.309687 380.04 
L 461.309687 380.04 
L 459.13625 380.04 
z
" clip-path="url(#pb3e505b377)" style="fill: #edd1cb; fill-opacity: 0.5; stroke: #000000; stroke-width: 0.228984; stroke-linejoin: miter"/>
   </g>
   <g id="patch_83">
    <path d="M 463.483125 380.04 
L 465.656562 380.04 
L 465.656562 380.04 
L 463.483125 380.04 
z
" clip-path="url(#pb3e505b377)" style="fill: #edd1cb; fill-opacity: 0.5; stroke: #000000; stroke-width: 0.228984; stroke-linejoin: miter"/>
   </g>
   <g id="patch_84">
    <path d="M 467.83 380.04 
L 470.003437 380.04 
L 470.003437 380.04 
L 467.83 380.04 
z
" clip-path="url(#pb3e505b377)" style="fill: #edd1cb; fill-opacity: 0.5; stroke: #000000; stroke-width: 0.228984; stroke-linejoin: miter"/>
   </g>
   <g id="patch_85">
    <path d="M 472.176875 380.04 
L 474.350312 380.04 
L 474.350312 380.04 
L 472.176875 380.04 
z
" clip-path="url(#pb3e505b377)" style="fill: #edd1cb; fill-opacity: 0.5; stroke: #000000; stroke-width: 0.228984; stroke-linejoin: miter"/>
   </g>
   <g id="patch_86">
    <path d="M 476.52375 380.04 
L 478.697187 380.04 
L 478.697187 380.04 
L 476.52375 380.04 
z
" clip-path="url(#pb3e505b377)" style="fill: #edd1cb; fill-opacity: 0.5; stroke: #000000; stroke-width: 0.228984; stroke-linejoin: miter"/>
   </g>
   <g id="patch_87">
    <path d="M 480.870625 380.04 
L 483.044062 380.04 
L 483.044062 380.04 
L 480.870625 380.04 
z
" clip-path="url(#pb3e505b377)" style="fill: #edd1cb; fill-opacity: 0.5; stroke: #000000; stroke-width: 0.228984; stroke-linejoin: miter"/>
   </g>
   <g id="patch_88">
    <path d="M 485.2175 380.04 
L 487.390937 380.04 
L 487.390937 380.04 
L 485.2175 380.04 
z
" clip-path="url(#pb3e505b377)" style="fill: #edd1cb; fill-opacity: 0.5; stroke: #000000; stroke-width: 0.228984; stroke-linejoin: miter"/>
   </g>
   <g id="patch_89">
    <path d="M 489.564375 380.04 
L 491.737812 380.04 
L 491.737812 380.04 
L 489.564375 380.04 
z
" clip-path="url(#pb3e505b377)" style="fill: #edd1cb; fill-opacity: 0.5; stroke: #000000; stroke-width: 0.228984; stroke-linejoin: miter"/>
   </g>
   <g id="patch_90">
    <path d="M 493.91125 380.04 
L 496.084687 380.04 
L 496.084687 380.04 
L 493.91125 380.04 
z
" clip-path="url(#pb3e505b377)" style="fill: #edd1cb; fill-opacity: 0.5; stroke: #000000; stroke-width: 0.228984; stroke-linejoin: miter"/>
   </g>
   <g id="patch_91">
    <path d="M 498.258125 380.04 
L 500.431562 380.04 
L 500.431562 380.04 
L 498.258125 380.04 
z
" clip-path="url(#pb3e505b377)" style="fill: #edd1cb; fill-opacity: 0.5; stroke: #000000; stroke-width: 0.228984; stroke-linejoin: miter"/>
   </g>
   <g id="patch_92">
    <path d="M 502.605 380.04 
L 504.778437 380.04 
L 504.778437 380.04 
L 502.605 380.04 
z
" clip-path="url(#pb3e505b377)" style="fill: #edd1cb; fill-opacity: 0.5; stroke: #000000; stroke-width: 0.228984; stroke-linejoin: miter"/>
   </g>
   <g id="patch_93">
    <path d="M 506.951875 380.04 
L 509.125313 380.04 
L 509.125313 380.04 
L 506.951875 380.04 
z
" clip-path="url(#pb3e505b377)" style="fill: #edd1cb; fill-opacity: 0.5; stroke: #000000; stroke-width: 0.228984; stroke-linejoin: miter"/>
   </g>
   <g id="patch_94">
    <path d="M 511.29875 380.04 
L 513.472187 380.04 
L 513.472187 352.452202 
L 511.29875 352.452202 
z
" clip-path="url(#pb3e505b377)" style="fill: #edd1cb; fill-opacity: 0.5; stroke: #000000; stroke-width: 0.228984; stroke-linejoin: miter"/>
   </g>
   <g id="patch_95">
    <path d="M 515.645625 380.04 
L 517.819062 380.04 
L 517.819062 380.04 
L 515.645625 380.04 
z
" clip-path="url(#pb3e505b377)" style="fill: #edd1cb; fill-opacity: 0.5; stroke: #000000; stroke-width: 0.228984; stroke-linejoin: miter"/>
   </g>
   <g id="patch_96">
    <path d="M 519.9925 380.04 
L 522.165937 380.04 
L 522.165937 380.04 
L 519.9925 380.04 
z
" clip-path="url(#pb3e505b377)" style="fill: #edd1cb; fill-opacity: 0.5; stroke: #000000; stroke-width: 0.228984; stroke-linejoin: miter"/>
   </g>
   <g id="patch_97">
    <path d="M 524.339375 380.04 
L 526.512812 380.04 
L 526.512812 380.04 
L 524.339375 380.04 
z
" clip-path="url(#pb3e505b377)" style="fill: #edd1cb; fill-opacity: 0.5; stroke: #000000; stroke-width: 0.228984; stroke-linejoin: miter"/>
   </g>
   <g id="patch_98">
    <path d="M 528.68625 380.04 
L 530.859687 380.04 
L 530.859687 380.04 
L 528.68625 380.04 
z
" clip-path="url(#pb3e505b377)" style="fill: #edd1cb; fill-opacity: 0.5; stroke: #000000; stroke-width: 0.228984; stroke-linejoin: miter"/>
   </g>
   <g id="patch_99">
    <path d="M 533.033125 380.04 
L 535.206562 380.04 
L 535.206562 380.04 
L 533.033125 380.04 
z
" clip-path="url(#pb3e505b377)" style="fill: #edd1cb; fill-opacity: 0.5; stroke: #000000; stroke-width: 0.228984; stroke-linejoin: miter"/>
   </g>
   <g id="patch_100">
    <path d="M 537.38 380.04 
L 539.553437 380.04 
L 539.553437 380.04 
L 537.38 380.04 
z
" clip-path="url(#pb3e505b377)" style="fill: #edd1cb; fill-opacity: 0.5; stroke: #000000; stroke-width: 0.228984; stroke-linejoin: miter"/>
   </g>
   <g id="patch_101">
    <path d="M 541.726875 380.04 
L 543.900312 380.04 
L 543.900312 380.04 
L 541.726875 380.04 
z
" clip-path="url(#pb3e505b377)" style="fill: #edd1cb; fill-opacity: 0.5; stroke: #000000; stroke-width: 0.228984; stroke-linejoin: miter"/>
   </g>
   <g id="patch_102">
    <path d="M 546.07375 380.04 
L 548.247187 380.04 
L 548.247187 380.04 
L 546.07375 380.04 
z
" clip-path="url(#pb3e505b377)" style="fill: #edd1cb; fill-opacity: 0.5; stroke: #000000; stroke-width: 0.228984; stroke-linejoin: miter"/>
   </g>
   <g id="patch_103">
    <path d="M 550.420625 380.04 
L 552.594062 380.04 
L 552.594062 352.452202 
L 550.420625 352.452202 
z
" clip-path="url(#pb3e505b377)" style="fill: #edd1cb; fill-opacity: 0.5; stroke: #000000; stroke-width: 0.228984; stroke-linejoin: miter"/>
   </g>
   <g id="matplotlib.axis_3">
    <g id="xtick_3">
     <g id="line2d_21">
      <g>
       <use xlink:href="#m4c99cd72f3" x="341.859337" y="390.04" style="stroke: #000000; stroke-width: 0.8"/>
      </g>
     </g>
     <g id="text_11">
      <!-- 0 -->
      <g transform="translate(339.078868 404.213437) scale(0.1 -0.1)">
       <use xlink:href="#Helvetica-30"/>
      </g>
     </g>
    </g>
    <g id="xtick_4">
     <g id="line2d_22">
      <g>
       <use xlink:href="#m4c99cd72f3" x="384.440969" y="390.04" style="stroke: #000000; stroke-width: 0.8"/>
      </g>
     </g>
     <g id="text_12">
      <!-- 10 -->
      <g transform="translate(378.880032 404.213437) scale(0.1 -0.1)">
       <use xlink:href="#Helvetica-31"/>
       <use xlink:href="#Helvetica-30" x="55.615234"/>
      </g>
     </g>
    </g>
    <g id="xtick_5">
     <g id="line2d_23">
      <g>
       <use xlink:href="#m4c99cd72f3" x="427.022602" y="390.04" style="stroke: #000000; stroke-width: 0.8"/>
      </g>
     </g>
     <g id="text_13">
      <!-- 20 -->
      <g transform="translate(421.461665 404.213437) scale(0.1 -0.1)">
       <use xlink:href="#Helvetica-32"/>
       <use xlink:href="#Helvetica-30" x="55.615234"/>
      </g>
     </g>
    </g>
    <g id="xtick_6">
     <g id="line2d_24">
      <g>
       <use xlink:href="#m4c99cd72f3" x="469.604235" y="390.04" style="stroke: #000000; stroke-width: 0.8"/>
      </g>
     </g>
     <g id="text_14">
      <!-- 30 -->
      <g transform="translate(464.043297 404.213437) scale(0.1 -0.1)">
       <use xlink:href="#Helvetica-33"/>
       <use xlink:href="#Helvetica-30" x="55.615234"/>
      </g>
     </g>
    </g>
    <g id="xtick_7">
     <g id="line2d_25">
      <g>
       <use xlink:href="#m4c99cd72f3" x="512.185867" y="390.04" style="stroke: #000000; stroke-width: 0.8"/>
      </g>
     </g>
     <g id="text_15">
      <!-- 40 -->
      <g transform="translate(506.62493 404.213437) scale(0.1 -0.1)">
       <use xlink:href="#Helvetica-34"/>
       <use xlink:href="#Helvetica-30" x="55.615234"/>
      </g>
     </g>
    </g>
    <g id="xtick_8">
     <g id="line2d_26">
      <g>
       <use xlink:href="#m4c99cd72f3" x="554.7675" y="390.04" style="stroke: #000000; stroke-width: 0.8"/>
      </g>
     </g>
     <g id="text_16">
      <!-- 50 -->
      <g transform="translate(549.206562 404.213437) scale(0.1 -0.1)">
       <use xlink:href="#Helvetica-35"/>
       <use xlink:href="#Helvetica-30" x="55.615234"/>
      </g>
     </g>
    </g>
    <g id="text_17">
     <!-- Contract duration in years -->
     <g transform="translate(393.195625 417.666562) scale(0.1 -0.1)">
      <use xlink:href="#Helvetica-43"/>
      <use xlink:href="#Helvetica-6f" x="72.216797"/>
      <use xlink:href="#Helvetica-6e" x="127.832031"/>
      <use xlink:href="#Helvetica-74" x="183.447266"/>
      <use xlink:href="#Helvetica-72" x="211.230469"/>
      <use xlink:href="#Helvetica-61" x="244.53125"/>
      <use xlink:href="#Helvetica-63" x="300.146484"/>
      <use xlink:href="#Helvetica-74" x="350.146484"/>
      <use xlink:href="#Helvetica-20" x="377.929688"/>
      <use xlink:href="#Helvetica-64" x="405.712891"/>
      <use xlink:href="#Helvetica-75" x="461.328125"/>
      <use xlink:href="#Helvetica-72" x="516.943359"/>
      <use xlink:href="#Helvetica-61" x="550.244141"/>
      <use xlink:href="#Helvetica-74" x="605.859375"/>
      <use xlink:href="#Helvetica-69" x="633.642578"/>
      <use xlink:href="#Helvetica-6f" x="655.859375"/>
      <use xlink:href="#Helvetica-6e" x="711.474609"/>
      <use xlink:href="#Helvetica-20" x="767.089844"/>
      <use xlink:href="#Helvetica-69" x="794.873047"/>
      <use xlink:href="#Helvetica-6e" x="817.089844"/>
      <use xlink:href="#Helvetica-20" x="872.705078"/>
      <use xlink:href="#Helvetica-79" x="900.488281"/>
      <use xlink:href="#Helvetica-65" x="950.488281"/>
      <use xlink:href="#Helvetica-61" x="1006.103516"/>
      <use xlink:href="#Helvetica-72" x="1061.71875"/>
      <use xlink:href="#Helvetica-73" x="1095.019531"/>
     </g>
    </g>
   </g>
   <g id="matplotlib.axis_4">
    <g id="ytick_7">
     <g id="line2d_27">
      <g>
       <use xlink:href="#m8e343aef83" x="325.685" y="380.04" style="stroke: #000000; stroke-width: 0.8"/>
      </g>
     </g>
     <g id="text_18">
      <!-- 0 -->
      <g transform="translate(313.124062 383.626719) scale(0.1 -0.1)">
       <use xlink:href="#Helvetica-30"/>
      </g>
     </g>
    </g>
    <g id="ytick_8">
     <g id="line2d_28">
      <g>
       <use xlink:href="#m8e343aef83" x="325.685" y="324.864405" style="stroke: #000000; stroke-width: 0.8"/>
      </g>
     </g>
     <g id="text_19">
      <!-- 2 -->
      <g transform="translate(313.124062 328.451124) scale(0.1 -0.1)">
       <use xlink:href="#Helvetica-32"/>
      </g>
     </g>
    </g>
    <g id="ytick_9">
     <g id="line2d_29">
      <g>
       <use xlink:href="#m8e343aef83" x="325.685" y="269.68881" style="stroke: #000000; stroke-width: 0.8"/>
      </g>
     </g>
     <g id="text_20">
      <!-- 4 -->
      <g transform="translate(313.124062 273.275528) scale(0.1 -0.1)">
       <use xlink:href="#Helvetica-34"/>
      </g>
     </g>
    </g>
    <g id="ytick_10">
     <g id="line2d_30">
      <g>
       <use xlink:href="#m8e343aef83" x="325.685" y="214.513214" style="stroke: #000000; stroke-width: 0.8"/>
      </g>
     </g>
     <g id="text_21">
      <!-- 6 -->
      <g transform="translate(313.124062 218.099933) scale(0.1 -0.1)">
       <defs>
        <path id="Helvetica-36" d="M 1872 4494 
Q 2622 4494 2917 4105 
Q 3213 3716 3213 3303 
L 2656 3303 
Q 2606 3569 2497 3719 
Q 2294 4000 1881 4000 
Q 1409 4000 1131 3564 
Q 853 3128 822 2316 
Q 1016 2600 1309 2741 
Q 1578 2866 1909 2866 
Q 2472 2866 2890 2506 
Q 3309 2147 3309 1434 
Q 3309 825 2912 354 
Q 2516 -116 1781 -116 
Q 1153 -116 697 361 
Q 241 838 241 1966 
Q 241 2800 444 3381 
Q 834 4494 1872 4494 
z
M 1831 384 
Q 2275 384 2495 682 
Q 2716 981 2716 1388 
Q 2716 1731 2519 2042 
Q 2322 2353 1803 2353 
Q 1441 2353 1167 2112 
Q 894 1872 894 1388 
Q 894 963 1142 673 
Q 1391 384 1831 384 
z
" transform="scale(0.015625)"/>
       </defs>
       <use xlink:href="#Helvetica-36"/>
      </g>
     </g>
    </g>
    <g id="ytick_11">
     <g id="line2d_31">
      <g>
       <use xlink:href="#m8e343aef83" x="325.685" y="159.337619" style="stroke: #000000; stroke-width: 0.8"/>
      </g>
     </g>
     <g id="text_22">
      <!-- 8 -->
      <g transform="translate(313.124062 162.924338) scale(0.1 -0.1)">
       <use xlink:href="#Helvetica-38"/>
      </g>
     </g>
    </g>
    <g id="ytick_12">
     <g id="line2d_32">
      <g>
       <use xlink:href="#m8e343aef83" x="325.685" y="104.162024" style="stroke: #000000; stroke-width: 0.8"/>
      </g>
     </g>
     <g id="text_23">
      <!-- 10 -->
      <g transform="translate(307.563125 107.748743) scale(0.1 -0.1)">
       <use xlink:href="#Helvetica-31"/>
       <use xlink:href="#Helvetica-30" x="55.615234"/>
      </g>
     </g>
    </g>
    <g id="ytick_13">
     <g id="line2d_33">
      <g>
       <use xlink:href="#m8e343aef83" x="325.685" y="48.986429" style="stroke: #000000; stroke-width: 0.8"/>
      </g>
     </g>
     <g id="text_24">
      <!-- 12 -->
      <g transform="translate(307.563125 52.573147) scale(0.1 -0.1)">
       <use xlink:href="#Helvetica-31"/>
       <use xlink:href="#Helvetica-32" x="55.615234"/>
      </g>
     </g>
    </g>
    <g id="text_25">
     <!-- Count -->
     <g transform="translate(301.47875 219.578281) rotate(-90) scale(0.1 -0.1)">
      <use xlink:href="#Helvetica-43"/>
      <use xlink:href="#Helvetica-6f" x="72.216797"/>
      <use xlink:href="#Helvetica-75" x="127.832031"/>
      <use xlink:href="#Helvetica-6e" x="183.447266"/>
      <use xlink:href="#Helvetica-74" x="239.0625"/>
     </g>
    </g>
   </g>
   <g id="line2d_34">
    <path d="M 346.1175 257.929209 
L 347.165992 235.654119 
L 348.214485 219.826679 
L 349.262977 212.689272 
L 350.31147 215.839069 
L 351.359962 228.509141 
L 353.456947 262.278583 
L 354.50544 270.155916 
L 355.553932 267.547427 
L 357.650917 247.519928 
L 358.69941 246.010681 
L 359.747902 257.806517 
L 360.796394 281.450161 
L 362.893379 337.211206 
L 363.941872 357.157152 
L 364.990364 369.436759 
L 366.038857 375.782429 
L 367.087349 378.55925 
L 368.135842 379.594048 
L 369.184334 379.923716 
L 371.281319 380.03487 
L 399.590616 380.04 
L 554.7675 380.04 
L 554.7675 380.04 
" clip-path="url(#pb3e505b377)" style="fill: none; stroke: #2d1e3e; stroke-width: 1.5; stroke-linecap: square"/>
   </g>
   <g id="line2d_35">
    <path d="M 346.1175 327.192945 
L 348.214485 325.591973 
L 350.31147 324.355287 
L 352.408455 323.508049 
L 354.50544 323.066885 
L 356.602425 323.039239 
L 358.69941 323.423072 
L 360.796394 324.2069 
L 362.893379 325.370173 
L 364.990364 326.883992 
L 367.087349 328.712106 
L 369.184334 330.812149 
L 372.329812 334.368248 
L 376.523781 339.600251 
L 384.911721 350.242692 
L 388.057198 353.848467 
L 391.202676 357.076629 
L 393.299661 358.986185 
L 395.396646 360.687987 
L 397.493631 362.177088 
L 399.590616 363.454125 
L 401.687601 364.524759 
L 403.784585 365.399026 
L 405.88157 366.090628 
L 407.978555 366.616191 
L 411.124033 367.1348 
L 414.26951 367.391526 
L 418.46348 367.449896 
L 425.802927 367.216691 
L 432.093882 367.122871 
L 436.287852 367.269645 
L 440.481822 367.633584 
L 444.675791 368.221415 
L 448.869761 369.012985 
L 454.112224 370.22519 
L 474.03358 375.163065 
L 479.276043 376.091233 
L 484.518505 376.768021 
L 489.760967 377.203854 
L 496.051922 377.463765 
L 503.391369 377.524399 
L 547.428053 377.442866 
L 554.7675 377.614523 
L 554.7675 377.614523 
" clip-path="url(#pb3e505b377)" style="fill: none; stroke: #edd1cb; stroke-width: 1.5; stroke-linecap: square"/>
   </g>
   <g id="patch_104">
    <path d="M 325.685 380.04 
L 325.685 48.986429 
" style="fill: none; stroke: #000000; stroke-width: 0.8; stroke-linejoin: miter; stroke-linecap: square"/>
   </g>
   <g id="patch_105">
    <path d="M 341.859337 390.04 
L 554.7675 390.04 
" style="fill: none; stroke: #000000; stroke-width: 0.8; stroke-linejoin: miter; stroke-linecap: square"/>
   </g>
   <g id="legend_1">
    <g id="patch_106">
     <path d="M 503.95625 83.207188 
L 558.2 83.207188 
Q 560.2 83.207188 560.2 81.207188 
L 560.2 39.43375 
Q 560.2 37.43375 558.2 37.43375 
L 503.95625 37.43375 
Q 501.95625 37.43375 501.95625 39.43375 
L 501.95625 81.207188 
Q 501.95625 83.207188 503.95625 83.207188 
z
" style="fill: #ffffff; opacity: 0.8; stroke: #cccccc; stroke-linejoin: miter"/>
    </g>
    <g id="text_26">
     <!-- Year -->
     <g transform="translate(520.517187 48.607188) scale(0.1 -0.1)">
      <use xlink:href="#Helvetica-59"/>
      <use xlink:href="#Helvetica-65" x="66.699219"/>
      <use xlink:href="#Helvetica-61" x="122.314453"/>
      <use xlink:href="#Helvetica-72" x="177.929688"/>
     </g>
    </g>
    <g id="patch_107">
     <path d="M 505.95625 62.865 
L 525.95625 62.865 
L 525.95625 55.865 
L 505.95625 55.865 
z
" style="fill: #edd1cb; fill-opacity: 0.5; stroke: #000000; stroke-linejoin: miter"/>
    </g>
    <g id="text_27">
     <!-- 2018 -->
     <g transform="translate(533.95625 62.865) scale(0.1 -0.1)">
      <use xlink:href="#Helvetica-32"/>
      <use xlink:href="#Helvetica-30" x="55.615234"/>
      <use xlink:href="#Helvetica-31" x="111.230469"/>
      <use xlink:href="#Helvetica-38" x="166.845703"/>
     </g>
    </g>
    <g id="patch_108">
     <path d="M 505.95625 77.122813 
L 525.95625 77.122813 
L 525.95625 70.122813 
L 505.95625 70.122813 
z
" style="fill: #2d1e3e; fill-opacity: 0.5; stroke: #000000; stroke-linejoin: miter"/>
    </g>
    <g id="text_28">
     <!-- 2022 -->
     <g transform="translate(533.95625 77.122813) scale(0.1 -0.1)">
      <use xlink:href="#Helvetica-32"/>
      <use xlink:href="#Helvetica-30" x="55.615234"/>
      <use xlink:href="#Helvetica-32" x="111.230469"/>
      <use xlink:href="#Helvetica-32" x="166.845703"/>
     </g>
    </g>
   </g>
  </g>
  <g id="text_29">
   <!-- Duration of contract in years for Netherlands (without 95 percentile) -->
   <g transform="translate(109.591875 17.38875) scale(0.12 -0.12)">
    <defs>
     <path id="Helvetica-44" d="M 2250 531 
Q 2566 531 2769 597 
Q 3131 719 3363 1066 
Q 3547 1344 3628 1778 
Q 3675 2038 3675 2259 
Q 3675 3113 3336 3584 
Q 2997 4056 2244 4056 
L 1141 4056 
L 1141 531 
L 2250 531 
z
M 516 4591 
L 2375 4591 
Q 3322 4591 3844 3919 
Q 4309 3313 4309 2366 
Q 4309 1634 4034 1044 
Q 3550 0 2369 0 
L 516 0 
L 516 4591 
z
" transform="scale(0.015625)"/>
     <path id="Helvetica-66" d="M 553 3856 
Q 566 4206 675 4369 
Q 872 4656 1434 4656 
Q 1488 4656 1544 4653 
Q 1600 4650 1672 4644 
L 1672 4131 
Q 1584 4138 1545 4139 
Q 1506 4141 1472 4141 
Q 1216 4141 1166 4008 
Q 1116 3875 1116 3331 
L 1672 3331 
L 1672 2888 
L 1109 2888 
L 1109 0 
L 553 0 
L 553 2888 
L 88 2888 
L 88 3331 
L 553 3331 
L 553 3856 
z
" transform="scale(0.015625)"/>
     <path id="Helvetica-4e" d="M 488 4591 
L 1222 4591 
L 3541 872 
L 3541 4591 
L 4131 4591 
L 4131 0 
L 3434 0 
L 1081 3716 
L 1081 0 
L 488 0 
L 488 4591 
z
M 2269 4591 
L 2269 4591 
z
" transform="scale(0.015625)"/>
     <path id="Helvetica-68" d="M 413 4606 
L 975 4606 
L 975 2894 
Q 1175 3147 1334 3250 
Q 1606 3428 2013 3428 
Q 2741 3428 3000 2919 
Q 3141 2641 3141 2147 
L 3141 0 
L 2563 0 
L 2563 2109 
Q 2563 2478 2469 2650 
Q 2316 2925 1894 2925 
Q 1544 2925 1259 2684 
Q 975 2444 975 1775 
L 975 0 
L 413 0 
L 413 4606 
z
" transform="scale(0.015625)"/>
     <path id="Helvetica-6c" d="M 428 4591 
L 991 4591 
L 991 0 
L 428 0 
L 428 4591 
z
" transform="scale(0.015625)"/>
     <path id="Helvetica-28" d="M 1894 4666 
Q 1403 3713 1256 3263 
Q 1034 2578 1034 1681 
Q 1034 775 1288 25 
Q 1444 -438 1903 -1306 
L 1525 -1306 
Q 1069 -594 959 -397 
Q 850 -200 722 138 
Q 547 600 478 1125 
Q 444 1397 444 1644 
Q 444 2569 734 3291 
Q 919 3750 1503 4666 
L 1894 4666 
z
" transform="scale(0.015625)"/>
     <path id="Helvetica-77" d="M 672 3347 
L 1316 709 
L 1969 3347 
L 2600 3347 
L 3256 725 
L 3941 3347 
L 4503 3347 
L 3531 0 
L 2947 0 
L 2266 2591 
L 1606 0 
L 1022 0 
L 56 3347 
L 672 3347 
z
" transform="scale(0.015625)"/>
     <path id="Helvetica-39" d="M 850 1081 
Q 875 616 1209 438 
Q 1381 344 1597 344 
Q 2000 344 2284 680 
Q 2569 1016 2688 2044 
Q 2500 1747 2223 1626 
Q 1947 1506 1628 1506 
Q 981 1506 604 1909 
Q 228 2313 228 2947 
Q 228 3556 600 4018 
Q 972 4481 1697 4481 
Q 2675 4481 3047 3600 
Q 3253 3116 3253 2388 
Q 3253 1566 3006 931 
Q 2597 -125 1619 -125 
Q 963 -125 622 219 
Q 281 563 281 1081 
L 850 1081 
z
M 1703 2000 
Q 2038 2000 2314 2220 
Q 2591 2441 2591 2991 
Q 2591 3484 2342 3726 
Q 2094 3969 1709 3969 
Q 1297 3969 1055 3692 
Q 813 3416 813 2953 
Q 813 2516 1025 2258 
Q 1238 2000 1703 2000 
z
" transform="scale(0.015625)"/>
     <path id="Helvetica-70" d="M 1825 378 
Q 2219 378 2480 708 
Q 2741 1038 2741 1694 
Q 2741 2094 2625 2381 
Q 2406 2934 1825 2934 
Q 1241 2934 1025 2350 
Q 909 2038 909 1556 
Q 909 1169 1025 897 
Q 1244 378 1825 378 
z
M 369 3331 
L 916 3331 
L 916 2888 
Q 1084 3116 1284 3241 
Q 1569 3428 1953 3428 
Q 2522 3428 2919 2992 
Q 3316 2556 3316 1747 
Q 3316 653 2744 184 
Q 2381 -113 1900 -113 
Q 1522 -113 1266 53 
Q 1116 147 931 375 
L 931 -1334 
L 369 -1334 
L 369 3331 
z
" transform="scale(0.015625)"/>
     <path id="Helvetica-29" d="M 222 -1306 
Q 719 -338 863 106 
Q 1081 778 1081 1681 
Q 1081 2584 828 3334 
Q 672 3797 213 4666 
L 591 4666 
Q 1072 3897 1173 3717 
Q 1275 3538 1394 3222 
Q 1544 2831 1608 2450 
Q 1672 2069 1672 1716 
Q 1672 791 1378 66 
Q 1194 -400 613 -1306 
L 222 -1306 
z
" transform="scale(0.015625)"/>
    </defs>
    <use xlink:href="#Helvetica-44"/>
    <use xlink:href="#Helvetica-75" x="72.216797"/>
    <use xlink:href="#Helvetica-72" x="127.832031"/>
    <use xlink:href="#Helvetica-61" x="161.132812"/>
    <use xlink:href="#Helvetica-74" x="216.748047"/>
    <use xlink:href="#Helvetica-69" x="244.53125"/>
    <use xlink:href="#Helvetica-6f" x="266.748047"/>
    <use xlink:href="#Helvetica-6e" x="322.363281"/>
    <use xlink:href="#Helvetica-20" x="377.978516"/>
    <use xlink:href="#Helvetica-6f" x="405.761719"/>
    <use xlink:href="#Helvetica-66" x="461.376953"/>
    <use xlink:href="#Helvetica-20" x="489.160156"/>
    <use xlink:href="#Helvetica-63" x="516.943359"/>
    <use xlink:href="#Helvetica-6f" x="566.943359"/>
    <use xlink:href="#Helvetica-6e" x="622.558594"/>
    <use xlink:href="#Helvetica-74" x="678.173828"/>
    <use xlink:href="#Helvetica-72" x="705.957031"/>
    <use xlink:href="#Helvetica-61" x="739.257812"/>
    <use xlink:href="#Helvetica-63" x="794.873047"/>
    <use xlink:href="#Helvetica-74" x="844.873047"/>
    <use xlink:href="#Helvetica-20" x="872.65625"/>
    <use xlink:href="#Helvetica-69" x="900.439453"/>
    <use xlink:href="#Helvetica-6e" x="922.65625"/>
    <use xlink:href="#Helvetica-20" x="978.271484"/>
    <use xlink:href="#Helvetica-79" x="1006.054688"/>
    <use xlink:href="#Helvetica-65" x="1056.054688"/>
    <use xlink:href="#Helvetica-61" x="1111.669922"/>
    <use xlink:href="#Helvetica-72" x="1167.285156"/>
    <use xlink:href="#Helvetica-73" x="1200.585938"/>
    <use xlink:href="#Helvetica-20" x="1250.585938"/>
    <use xlink:href="#Helvetica-66" x="1278.369141"/>
    <use xlink:href="#Helvetica-6f" x="1306.152344"/>
    <use xlink:href="#Helvetica-72" x="1361.767578"/>
    <use xlink:href="#Helvetica-20" x="1395.068359"/>
    <use xlink:href="#Helvetica-4e" x="1422.851562"/>
    <use xlink:href="#Helvetica-65" x="1495.068359"/>
    <use xlink:href="#Helvetica-74" x="1550.683594"/>
    <use xlink:href="#Helvetica-68" x="1578.466797"/>
    <use xlink:href="#Helvetica-65" x="1634.082031"/>
    <use xlink:href="#Helvetica-72" x="1689.697266"/>
    <use xlink:href="#Helvetica-6c" x="1722.998047"/>
    <use xlink:href="#Helvetica-61" x="1745.214844"/>
    <use xlink:href="#Helvetica-6e" x="1800.830078"/>
    <use xlink:href="#Helvetica-64" x="1856.445312"/>
    <use xlink:href="#Helvetica-73" x="1912.060547"/>
    <use xlink:href="#Helvetica-20" x="1962.060547"/>
    <use xlink:href="#Helvetica-28" x="1989.84375"/>
    <use xlink:href="#Helvetica-77" x="2023.144531"/>
    <use xlink:href="#Helvetica-69" x="2095.361328"/>
    <use xlink:href="#Helvetica-74" x="2117.578125"/>
    <use xlink:href="#Helvetica-68" x="2145.361328"/>
    <use xlink:href="#Helvetica-6f" x="2200.976562"/>
    <use xlink:href="#Helvetica-75" x="2256.591797"/>
    <use xlink:href="#Helvetica-74" x="2312.207031"/>
    <use xlink:href="#Helvetica-20" x="2339.990234"/>
    <use xlink:href="#Helvetica-39" x="2367.773438"/>
    <use xlink:href="#Helvetica-35" x="2423.388672"/>
    <use xlink:href="#Helvetica-20" x="2479.003906"/>
    <use xlink:href="#Helvetica-70" x="2506.787109"/>
    <use xlink:href="#Helvetica-65" x="2562.402344"/>
    <use xlink:href="#Helvetica-72" x="2618.017578"/>
    <use xlink:href="#Helvetica-63" x="2651.318359"/>
    <use xlink:href="#Helvetica-65" x="2701.318359"/>
    <use xlink:href="#Helvetica-6e" x="2756.933594"/>
    <use xlink:href="#Helvetica-74" x="2812.548828"/>
    <use xlink:href="#Helvetica-69" x="2840.332031"/>
    <use xlink:href="#Helvetica-6c" x="2862.548828"/>
    <use xlink:href="#Helvetica-65" x="2884.765625"/>
    <use xlink:href="#Helvetica-29" x="2940.380859"/>
   </g>
  </g>
 </g>
 <defs>
  <clipPath id="p87a431af0c">
   <rect x="53.04" y="32.43375" width="229.515" height="347.60625"/>
  </clipPath>
  <clipPath id="pb3e505b377">
   <rect x="335.685" y="32.43375" width="229.515" height="347.60625"/>
  </clipPath>
 </defs>
</svg>
